<svg xmlns="http://www.w3.org/2000/svg" width="78" height="19" fill="none" viewBox="0 0 78 19">
    <mask id="uslugi_svg__mask0_8009_6119" width="16" height="16" x="0" y="0" maskUnits="userSpaceOnUse" style="mask-type:alpha">
        <circle cx="8" cy="8" r="8" fill="#fff"/>
    </mask>
    <g mask="url(#uslugi_svg__mask0_8009_6119)">
        <path fill="#000" fill-opacity=".2" d="M0 0h16v16H0z"/>
        <path fill="gray" d="M5.58 2.799a3.977 3.977 0 0 0 4.274 6.708L16 5.59V0H9.974z"/>
        <path fill="#fff" d="M6.02 16H0v-5.595l6.148-3.917a3.977 3.977 0 0 1 4.273 6.708z"/>
    </g>
    <path fill="#000" fill-opacity=".5" d="M23.64 12.92q.16.06.38.1t.56.04q.72 0 1.12-.44t.72-1.22L22.2 1.1h2.5l2.92 7.28 2.84-7.28h2.32L28.6 11.32q-.38.9-.72 1.62t-.76 1.22-.98.78q-.56.26-1.36.26-.4 0-.7-.08a3 3 0 0 1-.44-.12zm14.657 2.28q-2.4 0-3.56-1.34t-1.16-3.88q0-1.14.28-2.1.3-.98.88-1.66.6-.7 1.46-1.08.86-.4 2-.4.9 0 1.54.14.639.12 1.02.34v2.02q-.36-.22-.98-.42a4.3 4.3 0 0 0-1.32-.2q-1.18 0-1.8.84-.62.82-.62 2.46 0 1.56.56 2.48t1.84.92q.76 0 1.3-.18.56-.18 1.02-.5v1.94q-.861.62-2.46.62m3.259-2.26q.06.06.14.1a1 1 0 0 0 .16.06q.099.02.24.02.3 0 .48-.14t.28-.46.14-.86q.06-.54.1-1.34l.2-5.38h6.82V15h-2.38V6.82h-2.44l-.12 3.6q-.04 1.26-.18 2.16t-.44 1.48-.8.86-1.26.28q-.42 0-.68-.1a1.5 1.5 0 0 1-.26-.1zM53.4 18.1q-.36 0-.6-.06a2 2 0 0 1-.4-.1 1.3 1.3 0 0 1-.3-.18v-1.94q.4.4 1.08.4.5 0 .8-.22.3-.2.5-.56l-3.46-10.5h2.5l2.22 7.58 2.22-7.58h2.3l-3.14 9.52q-.26.78-.56 1.44t-.72 1.14q-.42.5-1.02.78-.58.28-1.42.28M67.224 4.94v1.88h-3.68V15h-2.38V4.94zm3.701 0v6.24l3.64-6.24h2.12V15h-2.3V8.78L70.745 15h-2.12V4.94z"/>
</svg>
