<svg xmlns="http://www.w3.org/2000/svg" width="117" height="16" fill="none" viewBox="0 0 117 16">
    <mask id="rasp_svg__mask0_8010_6245" width="16" height="16" x="0" y="0" maskUnits="userSpaceOnUse" style="mask-type:alpha">
        <circle cx="8" cy="8" r="8" fill="#fff"/>
    </mask>
    <g mask="url(#rasp_svg__mask0_8010_6245)">
        <path fill="#000" fill-opacity=".2" d="M.016 0h16v16h-16z"/>
        <path fill="gray" d="m9.433 11.645-.884.78-1.993 1.89h3.268l3.83-3.83-3.818-3.818H6.568l.037.034.837.74 1.995 1.892H.113c.135.806.394 1.586.767 2.312z"/>
        <g filter="url(#rasp_svg__filter0_d_8010_6245)">
            <path fill="#fff" d="M6.168 9.333h3.27l-2-1.889-.838-.74-.047-.04h9.334a8 8 0 0 0-.768-2.313h-8.55l.88-.794 1.976-1.866H6.157L2.34 5.508z"/>
        </g>
    </g>
    <path fill="#000" fill-opacity=".5" d="M26.62 1.1q2.48 0 3.82 1.14t1.34 3.26q0 1.16-.38 2.02a3.64 3.64 0 0 1-1.04 1.4q-.66.56-1.62.84t-2.14.28h-1.18V15H23V1.1zm0 7.06q1.26 0 1.98-.64t.72-2.02q0-1.32-.68-1.92-.66-.6-1.94-.6h-1.28v5.18zm11.696 2.26h-.34q-1.54 0-2.2.36-.66.34-.66 1.2 0 .64.36 1.04.38.38 1.14.38.64 0 1.06-.22.42-.24.64-.58zm2.38 2.12q0 1.24.12 2.46h-2.32a4 4 0 0 1-.12-.38 5 5 0 0 1-.06-.42h-.1q-.34.36-.88.66-.54.28-1.58.28-1.38 0-2.24-.82-.84-.82-.84-2.36t1.26-2.38q1.26-.86 4-.86h.38v-.56q0-.82-.4-1.14-.4-.34-1.26-.34-.46 0-.94.1-.48.08-.92.22-.42.14-.8.32-.36.18-.6.36V5.7q.54-.32 1.44-.62t2.1-.3q1.899 0 2.82.76.94.76.94 2.6zm6.233 2.66q-2.4 0-3.56-1.34t-1.16-3.88q0-1.14.28-2.1.3-.98.88-1.66.6-.7 1.46-1.08.86-.4 2-.4.9 0 1.54.14.64.12 1.02.34v2.02q-.36-.22-.98-.42a4.3 4.3 0 0 0-1.32-.2q-1.179 0-1.8.84-.62.82-.62 2.46 0 1.56.56 2.48t1.84.92q.76 0 1.3-.18.561-.18 1.02-.5v1.94q-.86.62-2.46.62m11.9-10.26V15h-2.38V6.82h-3.08V15h-2.38V4.94zm4.303 0v6.24l3.64-6.24h2.12V15h-2.3V8.78L62.952 15h-2.12V4.94zM75.211 15.2q-2.4 0-3.56-1.34t-1.16-3.88q0-1.14.28-2.1.3-.98.88-1.66.6-.7 1.46-1.08.86-.4 2-.4.9 0 1.54.14.639.12 1.02.34v2.02q-.36-.22-.98-.42a4.3 4.3 0 0 0-1.32-.2q-1.18 0-1.8.84-.62.82-.62 2.46 0 1.56.56 2.48t1.84.92q.76 0 1.3-.18.56-.18 1.02-.5v1.94q-.861.62-2.46.62m9.198-4.78h-.34q-1.54 0-2.2.36-.66.34-.66 1.2 0 .64.36 1.04.381.38 1.14.38.64 0 1.06-.22.42-.24.64-.58zm2.38 2.12q0 1.24.12 2.46h-2.32a4 4 0 0 1-.12-.38 5 5 0 0 1-.06-.42h-.1q-.34.36-.88.66-.54.28-1.58.28-1.38 0-2.24-.82-.84-.82-.84-2.36t1.26-2.38q1.26-.86 4-.86h.38v-.56q0-.82-.4-1.14-.399-.34-1.26-.34-.46 0-.94.1-.48.08-.92.22-.42.14-.8.32-.36.18-.6.36V5.7q.54-.32 1.44-.62t2.1-.3q1.9 0 2.82.76.94.76.94 2.6zm9.854-7.6V15h-2.38v-4.2h-3.18V15h-2.38V4.94h2.38v3.98h3.18V4.94zm4.302 0v6.24l3.64-6.24h2.12V15h-2.3V8.78l-3.64 6.22h-2.12V4.94zM113.503 15v-3.28h-1.14l-1.92 3.28h-2.44l2.26-3.8q-.96-.34-1.48-1.04-.52-.72-.52-1.88 0-.8.3-1.42.3-.64.82-1.06t1.24-.64a5.7 5.7 0 0 1 1.62-.22h3.64V15zm-1.08-8.18q-.78 0-1.26.36-.48.34-.48 1.18 0 .88.42 1.26.44.36 1.26.36h1.14V6.82z"/>
    <defs>
        <filter id="rasp_svg__filter0_d_8010_6245" width="14.459" height="8.553" x="1.655" y="1.235" color-interpolation-filters="sRGB" filterUnits="userSpaceOnUse">
            <feFlood flood-opacity="0" result="BackgroundImageFix"/>
            <feColorMatrix in="SourceAlpha" result="hardAlpha" values="0 0 0 0 0 0 0 0 0 0 0 0 0 0 0 0 0 0 127 0"/>
            <feOffset dx="-.228"/>
            <feGaussianBlur stdDeviation=".228"/>
            <feColorMatrix values="0 0 0 0 0.0509804 0 0 0 0 0.137255 0 0 0 0 0.262745 0 0 0 0.05 0"/>
            <feBlend in2="BackgroundImageFix" result="effect1_dropShadow_8010_6245"/>
            <feBlend in="SourceGraphic" in2="effect1_dropShadow_8010_6245" result="shape"/>
        </filter>
    </defs>
</svg>
