<svg xmlns="http://www.w3.org/2000/svg" width="131" height="19" fill="none" viewBox="0 0 131 19">
    <g clip-path="url(#travel_svg__clip0_8010_6233)">
        <path fill="gray" d="M8 16A8 8 0 1 0 8 0a8 8 0 0 0 0 16"/>
        <path fill="#fff" d="M15.452 5.085A8 8 0 0 0 7.488.016a2 2 0 0 0-.15.312 2 2 0 0 1-.187.38c-.25.382-.784.636-1.214.841-.326.156-.592.283-.634.416-.135.446.511 1.21.88 1.347.324.12.625-.117.952-.373.268-.21.553-.433.883-.486.726-.118 3.427.128 3.877.844.67.746.594 1.953.193 2.12-.211.089-.557-.105-.935-.317-.395-.222-.825-.463-1.173-.423-.16.018-.38.113-.617.215-.335.143-.7.3-.959.27-.222-.026-.398-.311-.573-.593-.126-.204-.25-.405-.39-.505-.303-.217-2.016.157-2.457.357-.537.241-1.755 1.967-1.788 2.588-.04.72 1.43 2.176 2.024 2.292.288.056.68-.036 1.055-.124.436-.103.85-.2 1.06-.056.18.124.365 1.01.583 2.054.35 1.667.783 3.737 1.409 3.742.645.005 2.408-2.403 2.684-2.871.242-.414.24-.982.237-1.437-.001-.27-.002-.501.048-.636.077-.205.338-.438.604-.678.324-.29.656-.588.679-.851.018-.195-.267-.554-.552-.914-.345-.436-.69-.871-.494-1.012.125-.09.495.004.91.11.521.132 1.114.282 1.39.112.221-.137.331-.564.464-1.082a15 15 0 0 1 .155-.573m-1.799 6.439c-.296-.077-.638.686-.736.975-.089.265-.264 1.024 0 1.12.32.115.768-.722.864-1.047.074-.253.128-.982-.128-1.046m-12.508.6a8 8 0 0 1-.596-1.208c.262.117.47.268.557.53.075.226.075.45.039.678"/>
    </g>
    <path fill="#000" fill-opacity=".5" d="M32.16 1.1V15h-2.42V2.98h-4.32V15H23V1.1zm3.272 17q-.36 0-.6-.06a2 2 0 0 1-.4-.1 1.3 1.3 0 0 1-.3-.18v-1.94q.4.4 1.08.4.5 0 .8-.22.3-.2.5-.56l-3.46-10.5h2.5l2.22 7.58 2.22-7.58h2.3l-3.14 9.52q-.26.78-.56 1.44t-.72 1.14q-.42.5-1.02.78-.58.28-1.42.28M47.775 6.82V15h-2.38V6.82h-2.8V4.94h7.98v1.88zm6.27 4q.06 1.26.62 1.88t1.88.62q.88 0 1.72-.28.86-.28 1.42-.66v1.94q-.52.36-1.36.62t-1.98.26q-2.301 0-3.54-1.28-1.22-1.28-1.22-3.92 0-1.14.26-2.1a4.9 4.9 0 0 1 .78-1.66q.54-.72 1.34-1.1.82-.4 1.9-.4.9 0 1.62.26t1.22.84q.52.58.8 1.5.28.9.28 2.22v1.26zm1.78-4.2q-.86 0-1.3.62t-.48 1.82h3.32v-.2q0-.48-.08-.88-.06-.42-.24-.72t-.48-.46q-.3-.18-.74-.18m5.554-1.68h2.38v8.18h2.6V4.94h2.38v8.18h2.6V4.94h2.38V15h-12.34zm16.396 5.88q.06 1.26.62 1.88t1.88.62q.88 0 1.72-.28.86-.28 1.42-.66v1.94q-.52.36-1.36.62t-1.98.26q-2.3 0-3.54-1.28-1.22-1.28-1.22-3.92 0-1.14.26-2.1t.78-1.66q.54-.72 1.34-1.1.82-.4 1.9-.4.9 0 1.62.26t1.22.84q.52.58.8 1.5.28.9.28 2.22v1.26zm1.78-4.2q-.86 0-1.3.62t-.48 1.82h3.32v-.2q0-.48-.08-.88-.06-.42-.24-.72t-.48-.46q-.3-.18-.74-.18m9.874 8.58q-2.4 0-3.56-1.34t-1.16-3.88q0-1.14.28-2.1.3-.98.88-1.66.6-.7 1.46-1.08.86-.4 2-.4.9 0 1.54.14.64.12 1.02.34v2.02q-.36-.22-.98-.42a4.3 4.3 0 0 0-1.32-.2q-1.179 0-1.8.84-.62.82-.62 2.46 0 1.56.56 2.48t1.84.92q.76 0 1.3-.18.561-.18 1.02-.5v1.94q-.86.62-2.46.62m8.64-8.38V15h-2.38V6.82h-2.8V4.94h7.979v1.88zm8.408-1.88q3.34 0 3.34 2.56 0 .9-.48 1.48-.46.56-1.28.8 1.02.16 1.58.74.56.56.56 1.56 0 1.44-1 2.18-.98.74-2.76.74h-4.16V4.94zm-1.88 5.78v2.52h1.64q.72 0 1.14-.3.42-.32.42-1.02 0-.64-.4-.92t-1.16-.28zm0-4.02v2.28h1.52q.68 0 1.04-.3.38-.3.38-.82 0-1.16-1.34-1.16zm9.492-1.76v6.24l3.64-6.24h2.12V15h-2.3V8.78l-3.64 6.22h-2.12V4.94zM126.648 15v-3.28h-1.14l-1.92 3.28h-2.44l2.26-3.8q-.96-.34-1.48-1.04-.52-.72-.52-1.88 0-.8.3-1.42.3-.64.82-1.06t1.24-.64a5.7 5.7 0 0 1 1.62-.22h3.64V15zm-1.08-8.18q-.78 0-1.26.36-.48.34-.48 1.18 0 .88.42 1.26.44.36 1.26.36h1.14V6.82z"/>
    <defs>
        <clipPath id="travel_svg__clip0_8010_6233">
            <path fill="#fff" d="M0 0h16v16H0z"/>
        </clipPath>
    </defs>
</svg>
