<svg xmlns="http://www.w3.org/2000/svg" width="82" height="18" fill="none" viewBox="0 0 82 18">
    <g fill-rule="evenodd" clip-path="url(#arenda_svg__clip0_8010_6257)" clip-rule="evenodd">
        <path fill="#000" fill-opacity=".2" d="M16 0h-2.836l-.196.02-1.097.113a5.8 5.8 0 0 0-1.07.487 5.64 5.64 0 0 0-2.364 2.661c-.513 1.208-.57 2.559-.106 3.767q.12.31.286.608c.308.55.727 1.031 1.228 1.413l-.01.02q-.153.262-.373.468A5.2 5.2 0 0 1 8.09 7.969a5.3 5.3 0 0 1-.639-1.931 5.7 5.7 0 0 1 .208-2.384 6.25 6.25 0 0 1 2.763-3.52L10.385 0H0v5.964l.333-.093 14.006 9.796.092.333H16V9.977l-.133-.078a6.2 6.2 0 0 1-2.396.76l-.161-.604a5.6 5.6 0 0 0 2.557-.868L16 8.938zm-2.706 9.923-.02.001z"/>
        <path fill="gray" d="M0 16h14.765l-2.572-9.597a3.9 3.9 0 0 0-4.78-2.758L0 5.63zm6.991-6.052a2.165 2.165 0 1 0 2.166-3.751 2.166 2.166 0 0 0-2.166 3.75z"/>
        <path fill="#fff" d="M10.385 0a6.38 6.38 0 0 0-2.853 3.615 5.8 5.8 0 0 0-.213 2.44c.088.682.303 1.352.655 1.979A5.35 5.35 0 0 0 9.47 9.729a2.2 2.2 0 0 0 .547-.698A4.5 4.5 0 0 1 8.456 7c-.451-1.173-.397-2.489.104-3.667A5.5 5.5 0 0 1 10.869.736 5.46 5.46 0 0 1 13.164 0zM16 9.977V8.938q-.186.131-.387.247a5.44 5.44 0 0 1-2.474.748l.233.87A6.3 6.3 0 0 0 16 9.976"/>
    </g>
    <path fill="#000" fill-opacity=".5" d="M28.94 1.1 32.6 15h-2.52l-.78-3.04h-4.14L24.38 15H22.2l3.68-13.9zm-3.3 8.98h3.2l-1.58-6.24zm10.48-3.84q.46-.74 1.14-1.12.7-.38 1.54-.38t1.54.34a3.24 3.24 0 0 1 1.2 1.02q.501.66.78 1.64.28.96.28 2.22t-.3 2.24q-.28.98-.8 1.66-.5.66-1.24 1-.72.34-1.58.34-1.58 0-2.5-1.38v4.08H33.8V4.94H36zm1.96 7.08q1.04 0 1.54-.8.52-.8.52-2.56t-.48-2.54q-.48-.8-1.46-.8-.999 0-1.5.76-.5.76-.52 2.44v.16q0 1.76.46 2.56.48.78 1.44.78m8.171-2.5q.06 1.26.62 1.88t1.88.62q.88 0 1.72-.28.86-.28 1.42-.66v1.94q-.52.36-1.36.62t-1.98.26q-2.3 0-3.54-1.28-1.22-1.28-1.22-3.92 0-1.14.26-2.1a4.9 4.9 0 0 1 .78-1.66q.54-.72 1.34-1.1.82-.4 1.9-.4.9 0 1.62.26t1.22.84q.52.58.8 1.5.28.9.28 2.22v1.26zm1.78-4.2q-.86 0-1.3.62t-.48 1.82h3.32v-.2q0-.48-.08-.88-.06-.42-.24-.72t-.48-.46q-.3-.18-.74-.18m13.495-1.68V15h-2.38v-4.2h-3.18V15h-2.38V4.94h2.38v3.98h3.18V4.94zM72.367 17.3h-2.2V15h-5.34v2.3h-2.2v-4.18h.74q.32-.62.5-1.5.201-.88.3-1.86.12-1 .16-2.02t.04-1.94v-.86h6.94v8.18h1.06zm-3.44-10.48h-2.52v.3q0 .66-.04 1.46a23 23 0 0 1-.14 1.62q-.08.82-.26 1.6-.16.76-.4 1.32h3.36zm9.78 3.6h-.34q-1.54 0-2.2.36-.66.34-.66 1.2 0 .64.36 1.04.38.38 1.14.38.64 0 1.06-.22.42-.24.64-.58zm2.38 2.12q0 1.24.12 2.46h-2.32a4 4 0 0 1-.12-.38 5 5 0 0 1-.06-.42h-.1q-.34.36-.88.66-.54.28-1.58.28-1.38 0-2.24-.82-.84-.82-.84-2.36t1.26-2.38q1.26-.86 4-.86h.38v-.56q0-.82-.4-1.14-.4-.34-1.26-.34-.46 0-.94.1-.48.08-.92.22-.42.14-.8.32-.36.18-.6.36V5.7q.54-.32 1.44-.62t2.1-.3q1.899 0 2.82.76.94.76.94 2.6z"/>
    <defs>
        <clipPath id="arenda_svg__clip0_8010_6257">
            <rect width="16" height="16" fill="#fff" rx="8"/>
        </clipPath>
    </defs>
</svg>
