<?xml version="1.0"?>
<svg width="104" height="20" xmlns="http://www.w3.org/2000/svg" xmlns:svg="http://www.w3.org/2000/svg">
 <defs>
  <clipPath id="autoru-red_svg__clip0_39_586">
   <path d="m0,0l104,0l0,20l-104,0l0,-20z" fill="#fff" id="svg_1"/>
  </clipPath>
 </defs>
 <g class="layer">
  <title>Layer 1</title>
  <g clip-path="url(#autoru-red_svg__clip0_39_586)" fill="#E60000" id="svg_2">
   <path d="m104.17,18.49l-3.18,0l0,-1.18l-0.1,-0.05c-0.74,0.69 -1.81,1.6 -3.81,1.6c-3.41,0 -5.2,-2.72 -5.2,-7.06l0,-6.68l3.18,0l0,6.04c0,3.16 1.07,4.38 2.97,4.38s2.96,-1.23 2.96,-4.38l0,-6.04l3.18,0l0,13.36zm-19.12,-12.13c0.8,-0.77 2.29,-1.23 3.73,-1.23l1.6,0l0,3.37l-1.67,0c-2.49,0 -3.76,1.55 -3.76,4.54l0,5.45l-3.19,0l0,-13.36l3.19,0l0,1.18l0.1,0.05zm-9.13,8.26l3.65,0l0,3.87l-3.65,0l0,-3.87zm-7.59,4.25c-3.81,0 -6.73,-3.02 -6.73,-7.06c0,-4.03 2.91,-7.06 6.73,-7.06s6.72,3.02 6.72,7.06c0,4.03 -2.91,7.06 -6.72,7.06m-3.51,-7.06c0,1.98 1.49,3.77 3.51,3.77s3.51,-1.79 3.51,-3.77s-1.5,-3.77 -3.51,-3.77c-2.02,0 -3.51,1.79 -3.51,3.77m-4.45,3.34l0,3.34l-3.03,0c-3.39,0 -5.63,-2.51 -5.63,-6.06l0,-10.02l3.18,0l0,2.72l5.47,0l0,3.29l-5.47,0l0,2.96c0,2.54 1.2,3.77 3.56,3.77l1.92,0zm-11.02,3.34l-3.18,0l0,-1.18l-0.1,-0.05c-0.74,0.69 -1.81,1.6 -3.81,1.6c-3.41,0 -5.2,-2.72 -5.2,-7.06l0,-6.68l3.18,0l0,6.04c0,3.16 1.08,4.38 2.97,4.38s2.96,-1.23 2.96,-4.38l0,-6.04l3.18,0l0,13.36zm-24.82,-6.68c0,1.98 1.52,3.82 3.51,3.82c1.99,0 3.51,-1.85 3.51,-3.82s-1.52,-3.82 -3.51,-3.82s-3.51,1.84 -3.51,3.82m10.16,-6.68l0,13.36l-3.14,0l0,-1.18l-0.1,-0.05c-0.74,0.72 -1.94,1.6 -4.01,1.6c-3.64,0 -6.2,-3.12 -6.2,-7.06c0,-3.93 2.56,-7.06 6.2,-7.06c2.07,0 3.26,0.89 4.01,1.6l0.1,-0.05l0,-1.18l3.14,0z" id="svg_3"/>
  </g>
  <rect fill="#FF0000" height="0" id="svg_4" stroke="#000000" transform="rotate(-46.8476 0.75 0.375)" width="0" x="0.75" y="0.38"/>
  <text fill="#0000ff" font-family="Fantasy" font-size="24" id="svg_5" stroke="#000000" stroke-width="0" text-anchor="middle" transform="matrix(0.864952 0 0 0.410006 0.45084 8.72101)" x="11.76" xml:space="preserve" y="9.14">НЕ</text>
  <rect fill="#0000ff" height="3.88" id="svg_23" width="3.69" x="75.94" y="14.63"/>
 </g>
</svg>